<svg width="17" height="14" viewBox="0 0 17 14" fill="none" xmlns="http://www.w3.org/2000/svg">
<path d="M1.5 12C1.0875 12 0.734375 11.8531 0.440625 11.5594C0.146875 11.2656 0 10.9125 0 10.5V1.5C0 1.0875 0.146875 0.734375 0.440625 0.440625C0.734375 0.146875 1.0875 0 1.5 0H13.5C13.9125 0 14.2656 0.146875 14.5594 0.440625C14.8531 0.734375 15 1.0875 15 1.5V6H1.5V10.5V10.5V10.5H9V12H1.5V12M1.5 3H13.5V1.5V1.5V1.5H1.5V1.5V1.5V3V3M12.75 13.5V11.25H10.5V9.75H12.75V7.5H14.25V9.75H16.5V11.25H14.25V13.5H12.75V13.5M1.5 10.5V10.5V9.75C1.5 8.7125 1.5 7.82813 1.5 7.09688C1.5 6.36563 1.5 6 1.5 6V6V6V6V1.5V1.5V1.5V1.5V1.5V1.5V10.5V10.5V10.5V10.5V10.5V10.5" fill="white"/>
</svg>
